<svg width="16" height="18" xmlns="http://www.w3.org/2000/svg"><g fill="#2EBD59" stroke="#2EBD59" fill-rule="evenodd"><path d="M12.247 8.112a.29.29 0 01-.233-.46l2.197-3.024-2.197-3.022a.29.29 0 11.469-.341l2.322 3.192a.29.29 0 010 .341l-2.322 3.193a.289.289 0 01-.236.12h0z"/><path d="M1.508 9.273a.29.29 0 01-.29-.29V7.82A3.486 3.486 0 014.7 4.338h9.868a.29.29 0 010 .58H4.701a2.906 2.906 0 00-2.903 2.903v1.161c0 .16-.13.29-.29.29h0zM3.83 16.855a.29.29 0 01-.235-.12l-2.322-3.192a.29.29 0 010-.34l2.322-3.193a.29.29 0 11.469.342l-2.198 3.021 2.198 3.023a.288.288 0 01-.234.46h0z"/><path d="M11.957 13.663H1.798a.29.29 0 010-.58h10.159c1.513 0 2.612-1.222 2.612-2.903V9.019a.29.29 0 01.58 0v1.16c0 2.02-1.341 3.484-3.192 3.484h0z"/></g></svg>