<svg width="16" height="14" xmlns="http://www.w3.org/2000/svg"><g fill="#FFF" fill-rule="evenodd"><path d="M12.417 4.013l-.604.608a.894.894 0 000 1.257.875.875 0 001.247 0l2.108-2.126a.878.878 0 00.11-.135c.014-.02.023-.043.035-.064.016-.03.033-.058.046-.09.011-.026.017-.053.025-.08.009-.029.02-.056.025-.086a.885.885 0 00.014-.138c0-.012.004-.023.004-.035 0-.014-.004-.028-.005-.042a.878.878 0 00-.013-.131c-.006-.032-.017-.062-.027-.093-.008-.024-.013-.05-.023-.073-.014-.035-.033-.068-.052-.101-.01-.017-.017-.036-.028-.052a.889.889 0 00-.113-.138L13.06.369a.876.876 0 00-1.246 0 .894.894 0 000 1.257l.603.61h-1.214c-2.596 0-4.046 2.27-5.324 4.274C4.742 8.29 3.67 9.97 2.036 9.97H.992a.885.885 0 00-.881.888c0 .491.395.89.881.89h1.044c2.596 0 4.045-2.272 5.324-4.276 1.136-1.78 2.208-3.46 3.842-3.46h1.215z"/><path d="M.993 4.02h1.043c.873 0 1.632.45 2.458 1.458a.877.877 0 001.241.118.894.894 0 00.118-1.251c-.74-.903-1.941-2.103-3.817-2.103H.993a.885.885 0 00-.882.888c0 .491.395.89.882.89zM15.36 11.204c.01-.024.014-.048.022-.072.01-.031.021-.062.027-.094a.893.893 0 00.013-.13c.001-.015.005-.028.005-.043 0-.012-.003-.022-.004-.034a.896.896 0 00-.013-.14c-.006-.029-.017-.056-.025-.084-.008-.027-.014-.055-.025-.081-.013-.032-.03-.06-.047-.089-.011-.022-.02-.044-.034-.065a.887.887 0 00-.11-.135L13.06 8.11a.876.876 0 00-1.246 0 .894.894 0 000 1.257l.604.608h-1.215c-.876 0-1.637-.453-2.468-1.47a.877.877 0 00-1.241-.12.894.894 0 00-.12 1.25c.743.91 1.948 2.118 3.829 2.118h1.214l-.603.609a.894.894 0 000 1.257.875.875 0 001.246 0l2.107-2.124a.912.912 0 00.113-.14c.01-.015.017-.032.026-.049.02-.034.039-.067.053-.103z"/></g></svg>