<svg width="20" height="16" xmlns="http://www.w3.org/2000/svg"><path d="M6.554 7.068c.094-.122 1.213-1.356 1.654-1.902-1.543-1.84-2.99-2.88-5.664-2.88H0v2.286h2.544c1.896 0 2.653.802 4.01 2.496zm9.617 4.36H15.07c-1.881 0-2.669-.912-4.025-2.608.025-.03-.944 1.25-1.47 1.903 1.538 1.84 2.833 2.991 5.495 2.991h1.101V16l3.465-3.435-3.465-3.422v2.286zm-.744-6.856h.744v2.285l3.465-3.423L16.171 0v2.286h-.744c-3.466 0-5.539 2.498-7.37 4.896-1.709 2.24-3.186 4.247-5.49 4.247H0v2.285h2.567c3.44 0 5.506-2.683 7.328-5.071 1.717-2.253 3.201-4.071 5.532-4.071z" fill="#E1E1E1" fill-rule="nonzero"/></svg>